<?xml version="1.0" encoding="utf-8"?>
<!-- Generator: Adobe Illustrator 16.0.0, SVG Export Plug-In . SVG Version: 6.00 Build 0)  -->
<!DOCTYPE svg PUBLIC "-//W3C//DTD SVG 1.1//EN" "http://www.w3.org/Graphics/SVG/1.1/DTD/svg11.dtd">
<svg version="1.1" id="Layer_1" xmlns="http://www.w3.org/2000/svg" xmlns:xlink="http://www.w3.org/1999/xlink" x="0px" y="0px"
	 width="50px" height="50px" enable-background="new 0 0 50 50" xml:space="preserve">
<g>
	<path fill-rule="evenodd" clip-rule="evenodd" d="M28.656,33.723c-0.138-0.149-0.26-0.297-0.396-0.428
		c-1.126-1.067-2.255-2.134-3.381-3.199c-0.83-0.785-1.657-1.572-2.485-2.357c-0.904-0.854-1.808-1.709-2.712-2.564
		c-0.833-0.789-1.665-1.578-2.498-2.366c-1.322-1.25-2.645-2.5-3.967-3.752c-0.345-0.326-0.657-0.679-0.885-1.102
		c-0.427-0.792-0.492-1.624-0.261-2.483c0.144-0.536,0.412-1.008,0.75-1.445c0.326-0.423,0.726-0.776,1.103-1.15
		c0.611-0.609,1.23-1.212,1.846-1.818c0.961-0.944,1.922-1.887,2.882-2.831c0.807-0.794,1.614-1.588,2.421-2.382
		c0.724-0.711,1.452-1.418,2.171-2.135c0.269-0.269,0.513-0.562,0.773-0.839c0.508-0.541,1.089-0.979,1.802-1.213
		c1.13-0.371,2.204-0.227,3.215,0.395c0.343,0.211,0.646,0.472,0.931,0.754c2.137,2.109,4.272,4.217,6.407,6.326
		c2.73,2.695,5.46,5.389,8.188,8.084c1.039,1.025,2.079,2.048,3.113,3.078c0.453,0.453,0.815,0.972,1.03,1.581
		c0.395,1.121,0.288,2.198-0.299,3.229c-0.208,0.367-0.472,0.692-0.766,0.994c-1.353,1.388-2.705,2.775-4.057,4.163
		c-1.372,1.409-2.741,2.819-4.114,4.229c-1.166,1.196-2.33,2.392-3.494,3.586c-1.362,1.399-2.725,2.797-4.086,4.196
		c-0.906,0.928-1.812,1.858-2.718,2.788c-0.745,0.767-1.491,1.531-2.237,2.298c-0.393,0.405-0.819,0.77-1.331,1.017
		c-1.2,0.577-2.385,0.536-3.549-0.108c-0.392-0.217-0.732-0.501-1.049-0.814c-1.476-1.456-2.952-2.915-4.427-4.372
		c-0.511-0.504-1.025-1.004-1.53-1.514c-0.525-0.533-0.928-1.147-1.118-1.878c-0.275-1.059-0.13-2.064,0.446-2.995
		c0.47-0.763,1.087-1.382,1.883-1.801c1.147-0.604,2.311-0.602,3.47-0.027c0.414,0.205,0.78,0.482,1.109,0.804
		c0.514,0.502,1.021,1.009,1.533,1.512c0.237,0.232,0.495,0.442,0.801,0.582c0.471,0.216,0.936,0.203,1.397-0.028
		c0.273-0.138,0.508-0.326,0.721-0.545c1.106-1.136,2.213-2.273,3.318-3.41C28.628,33.758,28.646,33.736,28.656,33.723z
		 M26.554,11.06c-0.059,0.054-0.105,0.096-0.15,0.14c-1.072,1.054-2.146,2.104-3.213,3.164c-0.162,0.16-0.304,0.345-0.427,0.536
		c-0.228,0.352-0.334,0.737-0.236,1.158c0.081,0.343,0.268,0.628,0.515,0.87c0.373,0.365,0.754,0.722,1.133,1.081
		c0.925,0.875,1.852,1.749,2.775,2.624c0.814,0.771,1.628,1.545,2.443,2.317c0.735,0.698,1.471,1.397,2.211,2.091
		c0.92,0.861,1.842,1.717,2.765,2.573c0.037,0.037,0.079,0.069,0.128,0.111c0.046-0.046,0.089-0.084,0.129-0.126
		c0.923-0.947,1.848-1.892,2.766-2.843c0.169-0.174,0.328-0.364,0.46-0.567c0.389-0.601,0.407-1.219,0.021-1.831
		c-0.106-0.168-0.226-0.332-0.366-0.473c-0.472-0.48-0.952-0.951-1.432-1.424c-1.344-1.327-2.686-2.654-4.029-3.981
		c-1.657-1.635-3.313-3.27-4.97-4.905C26.908,11.407,26.737,11.24,26.554,11.06z"/>
	<path fill-rule="evenodd" clip-rule="evenodd" d="M4.97,30.508c-0.731,0-1.468-0.27-2.125-0.771
		c-0.427-0.327-0.788-0.713-1.069-1.171c-0.453-0.737-0.571-1.536-0.41-2.38c0.124-0.64,0.422-1.197,0.82-1.71
		c0.314-0.403,0.693-0.74,1.052-1.098c0.449-0.449,0.896-0.9,1.359-1.333c0.664-0.621,1.424-1.072,2.338-1.22
		c1.035-0.167,1.976,0.055,2.817,0.686c0.506,0.379,0.93,0.833,1.227,1.394c0.378,0.715,0.455,1.474,0.286,2.26
		c-0.131,0.607-0.417,1.14-0.797,1.628c-0.337,0.432-0.746,0.797-1.132,1.183c-0.359,0.358-0.723,0.713-1.085,1.067
		c-0.441,0.433-0.919,0.814-1.483,1.079C6.229,30.378,5.664,30.507,4.97,30.508z"/>
</g>
</svg>
