<?xml version="1.0" encoding="utf-8"?>
<!-- Generator: Adobe Illustrator 16.0.0, SVG Export Plug-In . SVG Version: 6.00 Build 0)  -->
<!DOCTYPE svg PUBLIC "-//W3C//DTD SVG 1.1//EN" "http://www.w3.org/Graphics/SVG/1.1/DTD/svg11.dtd">
<svg version="1.1" id="Layer_1" xmlns="http://www.w3.org/2000/svg" xmlns:xlink="http://www.w3.org/1999/xlink" x="0px" y="0px"
	 width="200px" height="50px" viewBox="0 0 200 50" enable-background="new 0 0 200 50" xml:space="preserve">
<g opacity="0.7">
	<path d="M21.523,19.86H10.016c-0.344,0-0.574-0.082-0.691-0.246s-0.176-0.316-0.176-0.457c0-0.469,0.289-0.703,0.867-0.703h11.508
		c0.281,0,0.5,0.07,0.656,0.211s0.234,0.305,0.234,0.492C22.414,19.626,22.117,19.86,21.523,19.86z M17.703,33.642
		c-1.203,0-2.258-0.18-3.164-0.54c-1.078-0.423-1.664-1.002-1.758-1.738v-8.735c0-0.266,0.113-0.481,0.34-0.646
		c0.227-0.165,0.488-0.247,0.785-0.247s0.555,0.078,0.773,0.235c0.219,0.156,0.328,0.375,0.328,0.657v8.198
		c0.156,0.376,0.52,0.705,1.09,0.986c0.57,0.282,1.105,0.423,1.605,0.423c0.281,0,0.5,0.07,0.656,0.211s0.234,0.305,0.234,0.492
		C18.594,33.407,18.297,33.642,17.703,33.642z"/>
	<path d="M40.133,32.798c0,0.266-0.09,0.449-0.269,0.551c-0.18,0.102-0.464,0.152-0.854,0.152h-5.732
		c-1.731,0-3.229-0.266-4.492-0.797c-1.451-0.609-2.223-1.43-2.316-2.461V29.54c0-0.844,0.452-1.563,1.355-2.156
		c1.138-0.734,2.79-1.102,4.957-1.102h1.893c0.296,0,0.522,0.07,0.678,0.211c0.156,0.141,0.234,0.313,0.234,0.516
		c0,0.188-0.074,0.348-0.222,0.48c-0.148,0.133-0.362,0.199-0.643,0.199h-1.915c-1.526,0-2.593,0.175-3.201,0.524
		c-0.607,0.35-0.911,0.905-0.911,1.667v0.257c0.125,0.684,0.686,1.196,1.683,1.538c0.826,0.28,1.792,0.42,2.899,0.42h4.629v-6.469
		c0-0.656-0.503-1.211-1.509-1.664s-2.046-0.68-3.122-0.68h-5.707c-0.343,0-0.573-0.082-0.69-0.246
		c-0.117-0.164-0.175-0.316-0.175-0.457c0-0.469,0.289-0.703,0.867-0.703h5.719c1.703,0,3.203,0.266,4.5,0.797
		c1.469,0.609,2.25,1.422,2.344,2.438V32.798z"/>
	<path d="M47.211,32.798c0,0.281-0.109,0.5-0.328,0.656s-0.477,0.234-0.773,0.234c-0.313,0-0.578-0.074-0.797-0.223
		s-0.328-0.371-0.328-0.668V19.157c0-0.266,0.113-0.48,0.34-0.645s0.488-0.246,0.785-0.246s0.555,0.078,0.773,0.234
		s0.328,0.375,0.328,0.656V32.798z M58.648,32.798c0,0.281-0.109,0.5-0.328,0.656s-0.477,0.234-0.773,0.234
		c-0.313,0-0.578-0.074-0.797-0.223c-0.219-0.149-0.328-0.372-0.328-0.67v-7.282c-0.078-0.626-0.529-1.162-1.355-1.609
		c-0.826-0.445-1.76-0.669-2.803-0.669h-1.915c-0.265,0-0.471-0.065-0.619-0.196c-0.147-0.13-0.222-0.287-0.222-0.472
		c0-0.461,0.297-0.691,0.891-0.691h1.898c1.641,0,3.086,0.281,4.336,0.844s1.922,1.313,2.016,2.25V32.798z"/>
	<path d="M77.258,30.688c0,0.875-0.531,1.563-1.591,2.063c-1.169,0.563-2.924,0.844-5.264,0.844c-1.7,0-3.206-0.273-4.516-0.82
		c-1.436-0.594-2.2-1.375-2.293-2.344V25.04c0-0.891,0.523-1.641,1.57-2.25c1.219-0.703,2.969-1.055,5.25-1.055
		c1.703,0,3.203,0.266,4.5,0.797c1.469,0.609,2.25,1.438,2.344,2.484v1.922c0,0.266-0.09,0.449-0.269,0.551
		c-0.18,0.102-0.464,0.152-0.854,0.152h-7.153c-0.343,0-0.573-0.082-0.69-0.246c-0.117-0.164-0.175-0.316-0.175-0.457
		c0-0.469,0.288-0.703,0.864-0.703h6.05c0-1.147-0.522-1.985-1.566-2.513c-0.779-0.387-1.8-0.581-3.063-0.581
		c-1.449,0-2.576,0.187-3.378,0.56s-1.204,0.824-1.204,1.353v5.316c0.171,0.591,0.709,1.041,1.613,1.353
		c0.904,0.311,1.878,0.466,2.922,0.466c1.402,0,2.533-0.174,3.39-0.522c0.857-0.349,1.286-0.678,1.286-0.987v-0.186
		c0-0.278,0.109-0.491,0.328-0.639s0.484-0.221,0.797-0.221c0.281,0,0.535,0.074,0.762,0.223s0.34,0.363,0.34,0.645V30.688z"/>
	<path d="M90.875,23.282h-1.898c-1.406,0-2.555,0.249-3.445,0.748c-0.781,0.437-1.172,0.936-1.172,1.497V32.8
		c0,0.28-0.109,0.499-0.328,0.655s-0.477,0.233-0.773,0.233c-0.313,0-0.578-0.074-0.797-0.223s-0.328-0.371-0.328-0.668v-7.664
		c0-0.859,0.539-1.594,1.617-2.203c1.25-0.703,2.984-1.055,5.203-1.055h1.922c0.281,0,0.5,0.07,0.656,0.211s0.234,0.305,0.234,0.492
		C91.766,23.048,91.469,23.282,90.875,23.282z"/>
	<path d="M116.281,32.798c0,0.297-0.113,0.535-0.34,0.715s-0.496,0.27-0.809,0.27s-0.57-0.082-0.773-0.246s-0.305-0.41-0.305-0.738
		V19.157c0-0.266,0.113-0.48,0.34-0.645s0.488-0.246,0.785-0.246s0.555,0.078,0.773,0.234s0.328,0.375,0.328,0.656V32.798z"/>
	<path d="M134.867,30.595c0.078,0.813-0.444,1.5-1.567,2.063c-1.248,0.625-3.011,0.938-5.288,0.938
		c-1.919,0-3.416-0.164-4.492-0.492c-1.451-0.438-2.223-1.172-2.316-2.203v-0.141c0-0.313,0.117-0.551,0.352-0.715
		s0.523-0.246,0.867-0.246c0.281,0,0.52,0.065,0.715,0.197s0.293,0.321,0.293,0.568v0.116c0,0.278,0.476,0.6,1.426,0.964
		c0.951,0.363,1.987,0.545,3.109,0.545c1.496,0,2.649-0.198,3.46-0.594c0.811-0.396,1.216-0.851,1.216-1.363
		c0-0.637-0.468-1.126-1.403-1.468s-2.012-0.513-3.228-0.513c-1.669,0-3.057-0.172-4.164-0.516
		c-1.762-0.547-2.643-1.469-2.643-2.766v-0.305c0-0.859,0.516-1.547,1.547-2.063c1.172-0.578,2.93-0.867,5.273-0.867
		c1.875,0,3.391,0.191,4.547,0.572c1.438,0.477,2.203,1.216,2.297,2.217v0.258c0,0.25-0.113,0.449-0.34,0.598
		s-0.496,0.223-0.809,0.223c-0.297,0-0.551-0.063-0.762-0.188s-0.316-0.305-0.316-0.539c0-0.516-0.522-0.953-1.566-1.313
		c-0.842-0.281-1.862-0.422-3.063-0.422c-1.465,0-2.596,0.179-3.39,0.536c-0.795,0.356-1.192,0.791-1.192,1.304
		c0,0.637,0.602,1.126,1.805,1.468c0.922,0.264,1.852,0.396,2.789,0.396c2.047,0,3.625,0.219,4.734,0.656
		c1.406,0.563,2.109,1.484,2.109,2.766V30.595z"/>
	<path d="M158.703,32.794c0,0.283-0.109,0.503-0.328,0.659c-0.219,0.157-0.477,0.235-0.773,0.235c-0.313,0-0.578-0.074-0.797-0.224
		c-0.219-0.148-0.328-0.373-0.328-0.671V22.72l-6.211,5.156c-0.313,0.313-0.625,0.469-0.938,0.469s-0.617-0.148-0.914-0.445
		l-6.305-4.922v9.75c0,0.266-0.113,0.48-0.34,0.645s-0.48,0.246-0.762,0.246c-0.313,0-0.578-0.078-0.797-0.234
		s-0.328-0.375-0.328-0.656V22.532c0-0.469,0.367-0.703,1.102-0.703h1.921c0.391,0,0.694,0.095,0.913,0.283l5.557,4.158l5.323-4.115
		c0.235-0.217,0.55-0.327,0.942-0.327h1.932c0.393,0,0.679,0.047,0.859,0.142c0.181,0.094,0.271,0.274,0.271,0.541V32.794z"/>
	<path d="M177.289,32.798c0,0.266-0.09,0.449-0.27,0.551c-0.179,0.102-0.464,0.152-0.854,0.152h-5.732
		c-1.731,0-3.229-0.266-4.492-0.797c-1.451-0.609-2.223-1.43-2.316-2.461V29.54c0-0.844,0.452-1.563,1.355-2.156
		c1.138-0.734,2.79-1.102,4.957-1.102h1.893c0.296,0,0.522,0.07,0.678,0.211c0.156,0.141,0.234,0.313,0.234,0.516
		c0,0.188-0.074,0.348-0.222,0.48c-0.148,0.133-0.362,0.199-0.643,0.199h-1.915c-1.526,0-2.594,0.175-3.2,0.524
		c-0.607,0.35-0.911,0.905-0.911,1.667v0.257c0.125,0.684,0.686,1.196,1.684,1.538c0.826,0.28,1.792,0.42,2.898,0.42h4.629v-6.469
		c0-0.656-0.503-1.211-1.509-1.664s-2.046-0.68-3.122-0.68h-5.707c-0.343,0-0.573-0.082-0.689-0.246
		c-0.117-0.164-0.176-0.316-0.176-0.457c0-0.469,0.289-0.703,0.867-0.703h5.719c1.703,0,3.203,0.266,4.5,0.797
		c1.469,0.609,2.25,1.422,2.344,2.438V32.798z"/>
	<path d="M184.391,20.845c0,0.281-0.109,0.5-0.328,0.656s-0.477,0.234-0.773,0.234c-0.313,0-0.578-0.074-0.797-0.223
		s-0.328-0.371-0.328-0.668v-1.688c0-0.266,0.113-0.48,0.34-0.645s0.488-0.246,0.785-0.246s0.555,0.078,0.773,0.234
		s0.328,0.375,0.328,0.656V20.845z M184.391,32.845c0,0.281-0.109,0.5-0.328,0.656s-0.477,0.234-0.773,0.234
		c-0.313,0-0.578-0.074-0.797-0.223s-0.328-0.371-0.328-0.668v-8.25c0-0.266,0.113-0.48,0.34-0.645s0.488-0.246,0.785-0.246
		s0.555,0.078,0.773,0.234s0.328,0.375,0.328,0.656V32.845z"/>
	<path d="M193.695,33.642c-1.172,0-2.184-0.195-3.035-0.587c-0.852-0.391-1.324-0.954-1.418-1.689V19.159
		c0-0.266,0.113-0.481,0.34-0.646c0.227-0.164,0.488-0.247,0.785-0.247s0.555,0.078,0.773,0.235s0.328,0.375,0.328,0.657v11.621
		c0.188,0.438,0.469,0.791,0.844,1.057c0.375,0.267,0.836,0.399,1.383,0.399c0.281,0,0.5,0.07,0.656,0.211s0.234,0.305,0.234,0.492
		C194.586,33.407,194.289,33.642,193.695,33.642z"/>
</g>
</svg>
